<svg xmlns="http://www.w3.org/2000/svg" width="38" height="28" viewBox="0 0 38 28">
    <g fill="none" fill-rule="evenodd">
        <g fill-rule="nonzero" stroke="#1A1A1A">
            <g>
                <g>
                    <path fill="#FFF" d="M31.967 12.98l.421 5.495-2.958.406-.421-5.494 2.958-.406zM5.787 13.137l.42 5.494-2.958.406-.42-5.494 2.958-.406z" transform="translate(-327 -742) translate(328.177 743) translate(0 6.145)"/>
                    <path fill="#9EB6D1" d="M32.316.054c-.215.02-.378.202-.376.418.053.421-.217.816-.629.919l-.64.004.329.959s4.12-.025 3.997-1.378c-.095-1.05-1.884-.998-2.681-.922h0zM2.684.054c.215.02.378.202.376.418-.053.421.217.816.629.919l.64.004L4 2.354S-.12 2.329.003.976C.098-.074 1.887-.022 2.684.054h0z" transform="translate(-327 -742) translate(328.177 743) translate(0 6.145)"/>
                </g>
                <path fill="#FFF" d="M34.079 14.408c-.077-1.019-.368-2.01-.854-2.905L31.488 8.28S28.404 1.244 27.12.684C25.877.142 17.947.02 17.422.014h-.03C16.868.026 8.94.243 7.705.8c-1.278.575-4.281 7.647-4.281 7.647l-1.697 3.244c-.475.902-.755 1.895-.82 2.915-.12 2.252.12 4.508.71 6.683.278 1.026 1.203 1.733 2.254 1.723l13.658-.08h.029l13.657-.082c1.05-.003 1.968-.722 2.233-1.75.565-2.182.778-4.442.632-6.693z" transform="translate(-327 -742) translate(328.177 743)"/>
                <path fill="#F8F195" d="M10.857 18.368l13.31-.08c.238-.001.432.19.433.429l.014 2.266c.001.238-.19.432-.429.434l-13.309.08c-.238 0-.432-.191-.434-.43l-.013-2.266c-.001-.238.19-.432.428-.433z" transform="translate(-327 -742) translate(328.177 743)"/>
                <path fill="#D0DDE9" d="M17.483 1.532l8.813.18L29.21 7.07l-11.678.07-11.766.07 2.175-4.894 9.542-.784z" transform="translate(-327 -742) translate(328.177 743)"/>
                <path fill="#FFF" d="M30.334 18.405c.3-.001.573.119.77.314.194.192.317.455.324.748-.03.33-.155.611-.35.81-.192.193-.449.303-.732.305-.3.002-.573-.118-.771-.314-.198-.196-.322-.468-.323-.768-.002-.3.118-.573.314-.771.196-.199.467-.322.768-.324zM4.829 18.558c.3-.002.573.118.771.314.198.196.322.467.324.767.001.301-.119.574-.315.772-.195.198-.467.322-.767.323-.3.002-.574-.118-.772-.314-.198-.195-.321-.467-.323-.767-.002-.3.118-.574.314-.772.196-.198.467-.322.768-.323z" transform="translate(-327 -742) translate(328.177 743)"/>
                <path fill="#9EB6D1" d="M32.56 12.066c-.039-.339-.344-.582-.682-.544-.027.003-.053.008-.079.014l-5.297 1.296c-.16.039-.296.14-.381.28l-1.05 1.736c-.175.292-.082.67.21.846.095.058.205.089.318.089h5.175c.122 0 .24-.034.342-.1 1.22-.809 1.603-2.068 1.444-3.617h0zM2.44 12.066c.039-.339.344-.582.682-.544.027.003.053.008.079.014l5.297 1.296c.16.039.296.14.381.28l1.05 1.736c.175.292.082.67-.21.846-.095.058-.205.089-.318.089H4.226c-.122 0-.24-.034-.342-.1-1.22-.809-1.603-2.068-1.444-3.617h0z" transform="translate(-327 -742) translate(328.177 743)"/>
            </g>
        </g>
    </g>
</svg>
