<svg xmlns="http://www.w3.org/2000/svg" width="37" height="29" viewBox="0 0 37 29">
    <g fill="none" fill-rule="evenodd">
        <g fill-rule="nonzero" stroke="#1A1A1A">
            <g>
                <path fill="#F8F195" d="M14.237.56c1.978-.259 6.395-.425 10.085 2.122 4.11 2.837 8.622 2.027 9.464 1.845.304-.081.572-.076.799-.017.65 1.806-1.644 5.497-5.41 7.372-1.885.94-4.086 1.398-6.446.692-3.865-1.156-6.534.005-7.729.746-.223.139-.484.317-.763.542h0z" transform="translate(-317 -57) translate(318 58)"/>
                <path fill="#FFF" d="M14.5.5c.292 0 .56.087.752.237h0l.248 26.096c-.44.58-.708.667-1 .667-.292 0-.56-.087-.752-.237h0L13.5 1.167c.44-.58.708-.667 1-.667z" transform="translate(-317 -57) translate(318 58)"/>
                <g fill="#9EB6D1">
                    <path d="M5.486-.667l.481 3.851H9.11l.768 2.302-3.852.481V9.11l-2.302.768-.481-3.852H.1l-.767-2.302 3.851-.481V.1l2.302-.767z" transform="translate(-317 -57) translate(318 58) translate(0 5.526)"/>
                </g>
            </g>
        </g>
    </g>
</svg>
