<svg xmlns="http://www.w3.org/2000/svg" width="34" height="33" viewBox="0 0 34 33">
    <g fill="none" fill-rule="evenodd">
        <g fill-rule="nonzero">
            <g>
                <path fill="#FFF" stroke="#1A1A1A" d="M15.562 1.704l13.124 14.115V30c0 .414-.168.79-.44 1.06-.271.272-.646.44-1.06.44h0H3.939c-.414 0-.789-.168-1.06-.44-.272-.27-.44-.646-.44-1.06h0V15.82L15.562 1.703z" transform="translate(-31 -736) translate(32 737)"/>
                <path fill="#F8E71C" stroke="#1A1A1A" d="M15.113 18.924L15.37 31.5H7.288V19.178l7.825-.254z" transform="translate(-31 -736) translate(32 737)"/>
                <path fill="#000" d="M15.894 1.514c-.36 0-.718.127-1.004.38l-4.056 3.642-8.563 8.087v4.08L15.894 5.621l13.623 12.08v-4.079l-8.564-8.087-4.056-3.642c-.286-.253-.645-.38-1.003-.38z" opacity=".05" transform="translate(-31 -736) translate(32 737)"/>
                <path fill="#000" d="M15.894.757c-.36 0-.718.126-1.004.378l-4.056 3.621-8.563 8.041v4.056L15.894 4.841l13.623 12.012v-4.056l-8.564-8.041-4.056-3.62c-.286-.253-.645-.38-1.003-.38z" opacity=".07" transform="translate(-31 -736) translate(32 737)"/>
                <path fill="#9EB6D1" stroke="#1A1A1A" d="M31.405 13.25L16.897.38C16.611.128 16.252 0 15.894 0c-.36 0-.718.127-1.004.38L.382 13.25c-.318.283-.34.772-.048 1.082l1.238 1.32c.28.3.745.322 1.052.052l13.27-11.596 13.27 11.596c.306.27.772.248 1.051-.05l1.238-1.321c.292-.311.27-.8-.048-1.083z" transform="translate(-31 -736) translate(32 737)"/>
                <path fill="#D0DDE9" stroke="#1A1A1A" d="M19.678 17.407h4.54c.419 0 .758.34.758.757v4.541c0 .418-.34.757-.757.757h-4.541c-.418 0-.757-.34-.757-.757v-4.54c0-.419.339-.758.757-.758z" transform="translate(-31 -736) translate(32 737)"/>
            </g>
        </g>
    </g>
</svg>
