<svg xmlns="http://www.w3.org/2000/svg" width="32" height="32" viewBox="0 0 32 32">
    <g fill="none" fill-rule="evenodd">
        <g fill-rule="nonzero">
            <g>
                <path fill="#FFF" stroke="#1A1A1A" d="M13.924 16.458c.435 0 .83.176 1.114.461.286.285.462.68.462 1.115h0v11.848c0 .435-.176.83-.461 1.114-.286.285-.68.462-1.115.462h0H2.076c-.435 0-.83-.177-1.115-.462C.676 30.711.5 30.317.5 29.882h0V18.034c0-.436.176-.83.462-1.115.285-.285.679-.461 1.114-.461h0zM29.924 16.5c.435 0 .83.176 1.114.462.286.285.462.679.462 1.114h0v11.848c0 .435-.176.83-.461 1.115-.286.285-.68.461-1.115.461h0-11.848c-.435 0-.83-.176-1.114-.462-.286-.285-.462-.679-.462-1.114h0V18.076c0-.435.177-.829.462-1.114.285-.285.679-.462 1.114-.462h0zM21.925.5c.435 0 .83.176 1.114.462.285.285.461.678.461 1.114h0v11.848c0 .435-.176.83-.461 1.115-.286.285-.68.461-1.115.461h0-11.848c-.435 0-.83-.176-1.115-.461-.285-.286-.461-.68-.461-1.115h0V2.076c0-.435.176-.83.462-1.114C9.247.676 9.64.5 10.076.5h0z" transform="translate(-276 -54) translate(276 54)"/>
                <path fill="#F2F2F2" d="M10 14h12c.552 0 1 .448 1 1H9c0-.552.448-1 1-1z" transform="translate(-276 -54) translate(276 54) matrix(1 0 0 -1 0 29)"/>
                <path fill="#F2F2F2" d="M2 30h12c.552 0 1 .448 1 1H1c0-.552.448-1 1-1z" transform="translate(-276 -54) translate(276 54) matrix(1 0 0 -1 0 61)"/>
                <path fill="#F2F2F2" d="M18 30h12c.552 0 1 .448 1 1H17c0-.552.448-1 1-1z" transform="translate(-276 -54) translate(276 54) matrix(1 0 0 -1 0 61)"/>
                <g stroke="#1A1A1A">
                    <path fill="#F8F195" d="M12.008-.5l3.475 7.616c.074.193.048.411-.072.588-.119.168-.309.268-.515.268h0-1.585l-1.061-1.64h-2.011L9.794 7.56l-2.136.412c-.206 0-.403-.105-.514-.268-.123-.175-.148-.396-.072-.588h0L9.882-.1c.073-.19.228-.324.413-.377h0L12.008-.5z" transform="translate(-276 -54) translate(276 54) translate(4.772 4.176)"/>
                    <path fill="#9EB6D1" d="M3.016 15.473c.613 0 1.079.028 1.382.08.37.063.707.198 1.001.398.296.2.545.47.743.804.203.346.307.736.307 1.162 0 .462-.127.889-.373 1.271.01.296.135.425.243.566.32.416.485.91.485 1.47 0 .422-.098.837-.293 1.234-.2.406-.479.735-.828.981-.342.24-.766.397-1.267.452-.232.026-.752.043-1.59.051l-.236.003H.133L-.495 16.1c0-.236.13-.442.323-.55l.086-.04 3.102-.038zm-.25 5.327h-.548v.67h.904l.145-.002c.275-.005.469-.029.63-.157-.044-.12-.113-.275-.216-.477-.167-.02-.448-.034-.915-.034h0zm-.358-2.87h-.19v.411h.657c.338-.002.558-.007.654-.019.087-.01.164-.027.217-.08.044-.044-.002-.138-.053-.276-.03-.008-.063-.011-.097-.015-.127-.014-.517-.02-1.378-.02z" transform="translate(-276 -54) translate(276 54) translate(4.772 4.176)"/>
                    <path fill="#D0DDE9" d="M19.5 15.348c1.055 0 1.92.33 2.58.953.487.457.843 1.154 1.024 2.084h0l-2.367.778c-.325-.576-.452-.912-.718-1.125-.163-.13-.36-.186-.594-.186-.34 0-.613.113-.827.36-.253.29-.345.79-.345 1.451 0 .712.09 1.243.344 1.542.207.244.469.358.8.358.228 0 .42-.067.584-.211.272-.24.406-.71.491-1.32h0l2.519.565c-.095 1.41-.593 2.244-1.282 2.766-.603.459-1.373.702-2.297.702-1.138 0-2.085-.4-2.82-1.178-.716-.76-1.096-1.804-1.096-3.116 0-1.38.383-2.46 1.099-3.226.735-.789 1.71-1.197 2.905-1.197z" transform="translate(-276 -54) translate(276 54) translate(4.772 4.176)"/>
                </g>
            </g>
        </g>
    </g>
</svg>
