<svg xmlns="http://www.w3.org/2000/svg" width="30" height="32" viewBox="0 0 30 32">
    <defs>
        <filter id="4gzu2mad8a" width="100%" height="100%" x="0%" y="0%" filterUnits="objectBoundingBox">
            <feGaussianBlur in="SourceGraphic"/>
        </filter>
    </defs>
    <g fill="none" fill-rule="evenodd">
        <g fill-rule="nonzero">
            <g transform="translate(-133 -737) translate(133.952 737)">
                <rect width="27.903" height="31" x=".5" y=".5" fill="#FFF" stroke="#1A1A1A" rx="2"/>
                <path fill="#2B3D51" d="M6.784 10.607c.062 0 .115-.024.16-.074.045-.05.068-.108.068-.176V5.286h1.517c.062 0 .115-.025.16-.074.045-.05.067-.108.067-.176v-.657c0-.068-.022-.127-.067-.176-.045-.05-.098-.074-.16-.074H4.357c-.062 0-.116.025-.16.074-.045.05-.068.108-.068.176v.657c0 .068.023.126.067.176.045.05.099.074.16.074h1.518v5.071c0 .068.022.127.067.176.045.05.099.074.16.074h.683zm2.783 0c.11 0 .186-.026.23-.078.043-.053.073-.104.09-.153l.352-1.027h2.588l.352 1.027c.016.05.046.1.09.153.044.052.12.078.23.078h.59c.06 0 .111-.024.155-.074.043-.05.065-.108.065-.176 0-.024-.002-.046-.008-.064l-2.007-5.85c-.032-.104-.07-.183-.114-.235-.044-.053-.11-.079-.197-.079h-.9c-.088 0-.154.026-.197.079-.044.052-.082.13-.115.236l-2.006 5.849c-.006.018-.009.04-.009.064 0 .068.022.127.066.176.044.05.095.074.156.074h.59zm2.891-2.563h-1.85l.925-2.064.925 2.064zm3.766 2.563c.119 0 .205-.03.259-.092.053-.062.092-.108.115-.139l1.409-2.045 1.417 2.045c.024.03.062.077.116.139.053.061.14.092.258.092h.749c.065 0 .122-.024.17-.074.047-.05.07-.108.07-.176 0-.03-.008-.064-.026-.101L18.738 7.34l1.97-2.86c.017-.036.026-.07.026-.101 0-.068-.024-.127-.071-.176-.048-.05-.104-.074-.17-.074h-.748c-.12 0-.205.03-.259.093-.053.061-.092.108-.116.138l-1.337 1.953-1.345-1.953c-.024-.03-.063-.077-.116-.138-.054-.062-.14-.093-.259-.093h-.749c-.065 0-.121.025-.169.074-.047.05-.071.108-.071.176 0 .03.009.065.027.102l1.952 2.822-2.042 2.953c-.017.037-.026.07-.026.101 0 .068.023.127.071.176.048.05.104.074.17.074h.748z" filter="url(#4gzu2mad8a)"/>
                <path fill="#F2F2F2" d="M2.032 1.032h24.839c.552 0 1 .448 1 1v.851H1.032v-.85c0-.553.448-1 1-1z"/>
                <rect width="12.419" height="2.702" x="4.629" y="13.919" fill="#D0DDE9" stroke="#1A1A1A" rx="1"/>
                <rect width="20.677" height="2.702" x="4.629" y="19.081" fill="#F8E71C" stroke="#1A1A1A" rx="1"/>
                <rect width="20.677" height="2.702" x="4.629" y="24.242" fill="#F8E71C" stroke="#1A1A1A" rx="1"/>
            </g>
        </g>
    </g>
</svg>
