<svg xmlns="http://www.w3.org/2000/svg" width="35" height="31" viewBox="0 0 35 31">
    <g fill="none" fill-rule="evenodd">
        <g>
            <g>
                <path fill="#FFF" fill-rule="nonzero" stroke="#1A1A1A" d="M6.306 28.67h22.388V5.422h-4.99V3.346c0-1.823-1.484-3.307-3.307-3.307h-5.793c-1.824 0-3.307 1.484-3.307 3.307v2.076h-4.99V28.67h0z" transform="translate(-237 -56) translate(237 57)"/>
                <path fill="#F2F2F2" fill-rule="nonzero" d="M4 27h24c.552 0 1 .448 1 1H3c0-.552.448-1 1-1z" transform="translate(-237 -56) translate(237 57)"/>
                <path fill="#F8F195" fill-rule="nonzero" stroke="#1A1A1A" d="M23.258 19.976l-1.342 1.053.106 1.702c.022.348-.156.68-.459.853-.141.081-.3.122-.456.122-.18 0-.357-.052-.512-.156l-1.416-.95-1.586.627c-.325.128-.694.061-.953-.173-.259-.234-.363-.596-.267-.931l.467-1.64-1.087-1.316c-.223-.269-.273-.64-.13-.96.143-.318.454-.528.803-.541l1.704-.063.915-1.44c.187-.295.525-.458.873-.42.347.037.643.268.763.596l.587 1.602 1.652.424c.338.087.598.359.67.7.07.342-.058.695-.332.91z" transform="translate(-237 -56) translate(237 57)"/>
                <path fill="#9EB6D1" fill-rule="nonzero" stroke="#1A1A1A" d="M23.679 9.29c1.627 0 2.679.625 2.679 1.592 0 .967-1.052 1.592-2.68 1.592-1.626 0-2.677-.625-2.677-1.592 0-.967 1.051-1.592 2.678-1.592z" transform="translate(-237 -56) translate(237 57)"/>
                <path fill="#FFF" fill-rule="nonzero" stroke="#1A1A1A" d="M13.131 3.346c0-.811.66-1.472 1.472-1.472h5.794c.811 0 1.471.66 1.471 1.472v2.076h-8.737V3.346z" transform="translate(-237 -56) translate(237 57)"/>
                <path fill="#9EB6D1" fill-rule="nonzero" stroke="#1A1A1A" d="M8.54 13.822l2.56-1.421c.212-.118.463-.147.697-.08.234.067.432.224.55.437l1.421 2.558c.247.443.087 1.002-.356 1.248l-2.559 1.421c-.137.076-.29.116-.445.116-.085 0-.17-.012-.253-.036-.233-.067-.431-.224-.55-.436l-1.42-2.56c-.247-.442-.087-1 .356-1.247z" transform="translate(-237 -56) translate(237 57)"/>
                <path fill="#D0DDE9" fill-rule="nonzero" stroke="#1A1A1A" d="M31.636 28.67h-3.107 0V5.422h3.107c.552 0 1 .448 1 1V27.67c0 .552-.448 1-1 1zM2.364 27.67V6.422c0-.552.448-1 1-1h3.107V28.67H3.364c-.552 0-1-.448-1-1z" transform="translate(-237 -56) translate(237 57)"/>
            </g>
        </g>
    </g>
</svg>
